<?xml version="1.0" standalone="no"?>
<!DOCTYPE svg PUBLIC "-//W3C//DTD SVG 20010904//EN"
 "http://www.w3.org/TR/2001/REC-SVG-20010904/DTD/svg10.dtd">
<svg version="1.0" xmlns="http://www.w3.org/2000/svg"
 width="448.000000pt" height="448.000000pt" viewBox="0 0 448.000000 448.000000"
 preserveAspectRatio="xMidYMid meet">
<metadata>
Created by potrace 1.11, written by Peter Selinger 2001-2013
</metadata>
<g transform="translate(0.000000,448.000000) scale(0.100000,-0.100000)"
fill="#000000" stroke="none">
<path d="M3418 4475 c-1 -1 -32 -5 -68 -9 -137 -12 -257 -62 -365 -150 -249
-203 -336 -529 -219 -824 146 -366 553 -542 931 -400 120 44 264 165 334 278
47 76 107 210 95 210 -3 0 0 15 5 33 14 44 18 198 7 255 -5 26 -11 58 -14 72
-19 96 -118 260 -202 339 -43 39 -151 111 -202 134 -55 25 -140 47 -200 53
-30 3 -65 7 -77 9 -12 2 -23 2 -25 0z"/>
<path d="M2515 4052 c-55 -2 -180 -15 -264 -27 -64 -9 -236 -58 -326 -92 -334
-128 -630 -359 -830 -647 -57 -83 -69 -101 -89 -137 l-15 -26 62 -16 c34 -8
69 -18 78 -22 11 -4 25 10 52 54 80 129 240 304 372 407 275 214 625 342 971
353 17 1 23 13 38 77 10 41 16 76 15 77 -2 1 -31 1 -64 -1z"/>
<path d="M4063 3127 l-52 -52 29 -52 c101 -186 170 -418 187 -628 11 -134 4
-400 -12 -425 -2 -3 -6 -25 -10 -49 -17 -118 -74 -279 -155 -442 l-38 -76 49
-49 c58 -57 53 -61 128 91 80 164 122 286 156 460 23 112 30 199 29 355 0 171
-10 250 -49 417 -30 124 -81 264 -140 381 -68 135 -61 131 -122 69z"/>
<path d="M818 2966 c-1 -2 -34 -6 -73 -9 -123 -10 -258 -63 -360 -141 -345
-264 -380 -770 -73 -1075 375 -374 1014 -226 1183 274 42 126 48 281 15 409
-71 278 -329 505 -603 531 -34 4 -67 8 -74 10 -6 2 -13 2 -15 1z"/>
<path d="M3320 1433 c-64 -10 -191 -56 -250 -90 -88 -51 -216 -181 -262 -265
-122 -224 -124 -485 -6 -698 251 -452 876 -502 1194 -95 157 200 193 490 92
724 -35 78 -106 178 -172 238 -137 125 -279 183 -461 187 -60 1 -121 1 -135
-1z"/>
<path d="M1058 1386 l-68 -21 59 -90 c283 -437 707 -719 1221 -810 81 -15 310
-32 310 -24 0 2 -5 20 -10 39 -6 19 -13 48 -16 65 -3 16 -6 30 -7 31 -1 1 -31
5 -67 9 -36 3 -85 8 -110 11 -274 28 -595 162 -820 343 -143 115 -253 235
-354 384 -33 48 -62 87 -65 86 -3 -1 -36 -11 -73 -23z"/>
</g>
</svg>
